<?xml version="1.0" standalone="no"?>
<!DOCTYPE svg PUBLIC "-//W3C//DTD SVG 20010904//EN"
 "http://www.w3.org/TR/2001/REC-SVG-20010904/DTD/svg10.dtd">
<svg version="1.0" xmlns="http://www.w3.org/2000/svg"
 width="256.000000pt" height="256.000000pt" viewBox="0 0 256.000000 256.000000"
 preserveAspectRatio="xMidYMid meet">
<metadata>
Created by potrace 1.11, written by Peter Selinger 2001-2013
</metadata>
<g transform="translate(0.000000,256.000000) scale(0.100000,-0.100000)"
fill="#000000" stroke="none">
<path d="M996 2544 c-9 -9 -16 -32 -16 -54 l0 -39 -32 19 c-74 42 -253 63
-284 32 -21 -20 -14 -83 16 -165 37 -97 106 -144 230 -154 l70 -6 0 -43 c0
-24 -3 -44 -7 -44 -120 -6 -278 -60 -391 -133 -343 -222 -463 -665 -282 -1034
40 -81 72 -116 130 -140 60 -25 174 5 207 53 12 18 10 25 -12 55 -122 167
-150 241 -149 394 0 101 9 142 46 225 118 261 424 390 690 290 129 -48 242
-149 303 -270 41 -83 58 -154 58 -250 0 -94 -16 -164 -61 -260 -67 -143 -54
-228 54 -340 44 -46 64 -75 67 -99 5 -28 38 -67 184 -214 98 -98 193 -185 211
-193 44 -19 67 -6 160 89 109 113 113 100 -121 334 -165 165 -197 193 -223
193 -22 0 -41 11 -73 44 l-43 44 17 34 c114 226 116 510 5 729 -124 243 -354
405 -629 443 -25 3 -47 10 -51 16 -5 7 -5 40 -1 71 1 3 18 6 39 7 171 8 252
77 282 241 15 86 3 101 -83 97 -106 -5 -184 -24 -219 -54 -16 -14 -18 -13 -19
9 -2 52 -6 71 -20 80 -21 13 -36 11 -53 -7z"/>
<path d="M996 1734 c-13 -12 -16 -38 -16 -120 l0 -105 -27 20 c-34 25 -95 40
-189 47 -85 7 -114 -4 -114 -44 1 -39 25 -133 43 -169 38 -73 134 -120 250
-122 l37 -1 0 -75 0 -75 -37 19 c-80 40 -258 57 -283 26 -34 -41 34 -229 99
-273 46 -30 110 -47 199 -51 21 -1 22 -5 22 -74 l0 -74 -47 23 c-27 13 -73 26
-103 30 -177 23 -200 6 -166 -123 36 -137 121 -201 270 -206 l46 -2 0 -150 0
-150 -467 1 c-381 1 -472 -1 -490 -13 -27 -16 -29 -35 -7 -57 14 -14 117 -16
987 -16 535 0 977 4 983 8 21 14 24 42 5 61 -16 16 -47 18 -469 17 l-452 -1
-1 55 c0 30 -1 97 -2 148 l-2 92 30 5 c17 2 48 7 71 9 133 16 205 97 229 259
6 38 4 47 -14 60 -40 27 -210 7 -278 -33 -37 -22 -34 -26 -35 55 -1 74 -4 71
79 83 148 23 205 73 237 210 26 110 17 125 -80 123 -74 -1 -176 -24 -211 -47
-13 -8 -23 -11 -24 -7 -4 35 -3 126 1 133 3 4 28 10 55 13 130 14 184 43 227
122 28 52 53 162 42 189 -9 23 -43 29 -122 22 -82 -7 -165 -30 -187 -52 -8 -8
-15 -12 -16 -7 0 4 -1 54 -2 111 -2 78 -6 105 -17 112 -22 14 -36 12 -54 -6z"/>
<path d="M2110 73 c-24 -17 -25 -36 -4 -57 23 -24 415 -24 438 0 21 21 20 50
-1 60 -10 4 -107 8 -216 9 -154 1 -202 -1 -217 -12z"/>
</g>
</svg>
