<?xml version="1.0" encoding="iso-8859-1"?>
<!-- Generator: Adobe Illustrator 19.0.0, SVG Export Plug-In . SVG Version: 6.00 Build 0)  -->
<svg version="1.1" id="Capa_1" xmlns="http://www.w3.org/2000/svg" xmlns:xlink="http://www.w3.org/1999/xlink" x="0px" y="0px"
	 viewBox="0 0 512 512" style="enable-background:new 0 0 512 512;" xml:space="preserve">
<circle style="fill:#71C2F5;" cx="199.903" cy="292.069" r="192.388"/>
<path style="fill:#56ACE1;" d="M231.968,460.412c-106.253,0-192.388-86.135-192.388-192.388c0-55.777,23.745-106,61.666-141.139
	c-56.14,33.601-93.731,95.001-93.731,165.187c0,106.253,86.135,192.388,192.388,192.388c50.477,0,96.404-19.448,130.722-51.249
	C301.777,450.478,268.035,460.412,231.968,460.412z"/>
<path style="fill:#15B259;" d="M150.722,442.45l-28.321,25.747c23.712,10.449,49.927,16.263,77.502,16.263
	c50.455,0,96.355-19.439,130.668-51.216c-28.836,17.247-62.559,27.168-98.603,27.168
	C202.932,460.412,175.406,453.967,150.722,442.45z"/>
<g>
	<path style="fill:#3AC274;" d="M101.198,126.93c-18.518,11.094-35.027,25.202-48.82,41.666l9.491,9.491
		C72.049,158.87,85.388,141.589,101.198,126.93z"/>
	<path style="fill:#3AC274;" d="M366.361,388.582l-102.328-24.363c0,0-16.032-48.097-16.032-56.113s40.081-56.113,40.081-56.113
		l97.54-10.268c-22.132-81.831-96.887-142.04-185.718-142.04c-36.091,0-69.847,9.955-98.705,27.245
		c-15.81,14.66-29.149,31.94-39.329,51.156l25.808,25.809l64.129,8.016l56.113,88.178l8.016,48.097l-32.065,64.129l-33.149,30.135
		c24.684,11.517,52.21,17.962,81.246,17.962c36.044,0,69.766-9.921,98.603-27.168C344.595,420.254,356.696,405.216,366.361,388.582z
		"/>
</g>
<path style="fill:#15B259;" d="M39.58,268.024c0-1.565,0.022-3.125,0.059-4.68l-30.34,2.527c-1.167,8.568-1.784,17.312-1.784,26.201
	c0,63.876,31.138,120.47,79.053,155.462l22.498-31.498C66.613,380.747,39.58,327.544,39.58,268.024z"/>
<path style="fill:#3AC274;" d="M111.725,332.154c-8.016,0-32.065-72.146-32.065-72.146l-40.022,3.336
	c-0.037,1.556-0.059,3.115-0.059,4.68c0,59.52,27.034,112.723,69.487,148.013l42.739-59.835
	C151.806,356.202,119.742,332.154,111.725,332.154z"/>
<polygon style="fill:#CCCFD9;" points="382.727,217.923 362.687,237.964 477.372,359.754 504.518,332.609 "/>
<polygon style="fill:#FFE16E;" points="448.267,279.64 422.979,255.828 400.591,278.216 424.403,303.503 "/>
<polygon style="fill:#66708D;" points="448.267,279.64 424.403,303.503 477.372,359.754 504.518,332.609 "/>
<circle style="fill:#FFDE5F;" cx="292.54" cy="147.778" r="120.243"/>
<circle style="fill:#DDDFE6;" cx="292.54" cy="147.778" r="88.178"/>
<circle style="fill:#EEEFF2;" cx="292.54" cy="147.778" r="72.146"/>
<path style="fill:#EF5830;" d="M252.464,133.753c0-22.136,17.945-40.081,40.081-40.081c22.136,0,40.081,17.945,40.081,40.081
	c0,30.061-40.081,70.142-40.081,70.142S252.464,163.814,252.464,133.753z"/>
<circle style="fill:#FFA68F;" cx="292.54" cy="133.749" r="15.03"/>
<path d="M509.67,327.139L397.091,221.127c14.616-20.772,23.212-46.072,23.212-73.345c0-70.446-57.312-127.758-127.758-127.758
	c-51.042,0-95.181,30.092-115.628,73.463c-48.24,5.527-92.758,28.466-125.452,64.692c-1.674,1.856-3.301,3.746-4.9,5.655
	c-0.009,0.011-0.018,0.021-0.026,0.031C16.48,199.786,0,245.014,0,292.073C0,402.3,89.676,491.976,199.903,491.976
	s199.903-89.677,199.903-199.903c0-1.259-0.029-2.521-0.052-3.783l72.148,76.617c2.866,3.043,7.829,3.118,10.785,0.162
	l27.146-27.145C512.786,334.969,512.711,330.003,509.67,327.139z M411.062,278.374l12.075-12.075l14.339,13.503l-12.911,12.912
	L411.062,278.374z M412.19,255.989l-11.437,11.437l-23.059-24.487c3.517-3.15,6.858-6.492,10.009-10.008L412.19,255.989z
	 M292.545,35.054c62.157,0,112.727,50.57,112.727,112.727s-50.57,112.727-112.727,112.727s-112.727-50.57-112.727-112.727
	S230.388,35.054,292.545,35.054z M97.133,445.673l60.788-85.103c2.373-3.322,1.66-7.931-1.606-10.38
	c-14.16-10.62-32.312-23.098-42.005-25.234c-5.336-6.568-18.174-39.287-27.521-67.325c-1.096-3.288-4.283-5.407-7.754-5.112
	l-60.806,5.067c5.413-28.811,17.5-55.337,34.674-77.834l29.459,29.457c1.181,1.181,2.723,1.936,4.381,2.143l60.62,7.577
	l53.393,83.903l7.364,44.178l-30.344,60.687l-56.72,51.564C112.723,455.317,104.728,450.771,97.133,445.673z M15.03,292.073
	c0-6.487,0.345-12.898,0.996-19.221l58.412-4.868c2.348,6.806,6.595,18.865,11.245,30.821c4.156,10.688,7.833,19.246,10.929,25.437
	c4.823,9.647,8.823,15.284,14.882,15.424c3.927,0.731,17.47,9.301,29.883,18.208l-56.373,78.922
	C42.398,402.897,15.03,350.624,15.03,292.073z M199.903,476.946c-22.324,0-43.736-3.978-63.566-11.262l52.589-47.807
	c0.687-0.624,1.252-1.37,1.666-2.199l32.065-64.129c0.71-1.421,0.952-3.03,0.691-4.597l-8.016-48.097
	c-0.166-0.995-0.531-1.947-1.073-2.799l-56.113-88.178c-1.202-1.89-3.185-3.145-5.407-3.423l-61.571-7.697l-28.626-28.625
	c27.493-30.5,65.131-51.835,108.107-58.632c-3.806,12.091-5.862,24.95-5.862,38.282c0,60.089,41.703,110.614,97.685,124.174
	c-21.969,28.473-21.987,33.053-21.987,36.149c0,8.57,12.566,46.936,16.418,58.49c0.822,2.466,2.86,4.332,5.389,4.934l92.122,21.933
	C321.33,443.708,264.43,476.946,199.903,476.946z M383.632,271.383c0.76,6.825,1.144,13.786,1.144,20.689
	c0,31.784-8.064,61.72-22.252,87.87l-92.674-22.065c-6.8-20.677-13.732-43.852-14.299-49.268c0.646-1.666,4.269-9.06,23.721-33.757
	c4.364,0.453,8.792,0.687,13.273,0.687c27.273,0,52.573-8.595,73.345-23.212l17.729,18.827
	C383.625,271.231,383.624,271.306,383.632,271.383z M477.534,348.964l-42.661-45.302l13.55-13.55l45.303,42.66L477.534,348.964z"/>
<path d="M292.545,243.475c52.765,0,95.693-42.928,95.693-95.693c0-23.961-8.9-46.891-25.062-64.562
	c-2.802-3.064-7.555-3.277-10.617-0.474c-3.063,2.801-3.276,7.554-0.474,10.617c13.62,14.894,21.122,34.22,21.122,54.419
	c0,44.478-36.185,80.663-80.663,80.663s-80.663-36.185-80.663-80.663s36.185-80.663,80.663-80.663c11.763,0,23.1,2.473,33.693,7.351
	c3.769,1.736,8.234,0.086,9.969-3.683c1.736-3.771,0.087-8.234-3.683-9.969c-12.58-5.792-26.031-8.729-39.979-8.729
	c-52.765,0-95.693,42.928-95.693,95.693S239.78,243.475,292.545,243.475z"/>
<path d="M292.545,86.157c-26.244,0-47.596,21.352-47.596,47.596c0,32.796,40.556,73.729,42.281,75.456
	c2.895,2.893,7.734,2.893,10.628,0c1.726-1.727,42.281-42.659,42.281-75.456C340.141,107.508,318.789,86.157,292.545,86.157z
	 M292.545,192.938c-12.367-13.764-32.566-40.227-32.566-59.184c0-17.957,14.608-32.566,32.566-32.566s32.566,14.608,32.566,32.566
	C325.111,152.712,304.911,179.176,292.545,192.938z"/>
<path d="M292.545,111.208c-12.431,0-22.546,10.114-22.546,22.545s10.114,22.545,22.546,22.545s22.545-10.114,22.545-22.545
	S304.976,111.208,292.545,111.208z M292.545,141.269c-4.144,0-7.515-3.371-7.515-7.515s3.371-7.515,7.515-7.515
	s7.515,3.371,7.515,7.515S296.69,141.269,292.545,141.269z"/>
<g>
</g>
<g>
</g>
<g>
</g>
<g>
</g>
<g>
</g>
<g>
</g>
<g>
</g>
<g>
</g>
<g>
</g>
<g>
</g>
<g>
</g>
<g>
</g>
<g>
</g>
<g>
</g>
<g>
</g>
</svg>
